<svg width="138" height="165" viewBox="0 0 138 165" fill="none" xmlns="http://www.w3.org/2000/svg">
<rect x="-27" y="145.53" width="220" height="30" transform="rotate(-50 -27 145.53)" fill="url(#paint0_linear_508_4019)"/>
<path d="M29.2406 91.3773L30.8662 89.44L43.463 94.0298L41.9647 95.8155L39.7342 95.0013L36.2631 99.1379L37.4523 101.193L35.9539 102.979L29.2406 91.3773ZM35.0958 97.1127L37.5313 94.2102L32.3326 92.3269L35.0958 97.1127ZM45.2964 82.9959L49.6537 86.6521L48.2421 88.3343L44.3261 85.0484C44.0549 84.8208 43.7531 84.6811 43.4206 84.6293C43.0836 84.5736 42.7562 84.6044 42.4385 84.7216C42.1201 84.8304 41.8471 85.0204 41.6196 85.2915C41.392 85.5627 41.2504 85.8668 41.1947 86.2039C41.1383 86.5325 41.1668 86.858 41.2801 87.1802C41.3928 87.494 41.5847 87.7647 41.8559 87.9923L45.7719 91.2782L44.3603 92.9604L37.4601 87.1822L38.8717 85.5L39.4911 86.008C39.4396 85.5653 39.4795 85.121 39.6108 84.6751C39.7376 84.2254 39.9591 83.8121 40.2753 83.4352C40.6957 82.9342 41.2036 82.581 41.7989 82.3756C42.3896 82.1663 42.994 82.1134 43.612 82.217C44.2294 82.312 44.7908 82.5716 45.2964 82.9959ZM51.7481 75.307L56.1054 78.9632L54.6938 80.6454L50.7778 77.3595C50.5066 77.1319 50.2048 76.9923 49.8724 76.9404C49.5353 76.8847 49.2079 76.9155 48.8902 77.0327C48.5718 77.1415 48.2989 77.3315 48.0713 77.6027C47.8438 77.8739 47.7021 78.178 47.6465 78.515C47.59 78.8436 47.6185 79.1691 47.7319 79.4914C47.8445 79.8052 48.0364 80.0759 48.3076 80.3034L52.2236 83.5893L50.812 85.2716L43.9119 79.4934L45.3234 77.8111L45.9428 78.3191C45.8913 77.8764 45.9312 77.4322 46.0626 76.9863C46.1893 76.5365 46.4108 76.1232 46.7271 75.7463C47.1474 75.2453 47.6553 74.8921 48.2506 74.6867C48.8413 74.4775 49.4457 74.4246 50.0638 74.5281C50.6811 74.6231 51.2426 74.8828 51.7481 75.307ZM54.4757 75.7249L50.1322 72.0803L51.5437 70.398L55.446 73.6724C55.7172 73.9 56.0213 74.0416 56.3583 74.0973C56.6908 74.1491 57.0162 74.1206 57.3347 74.0118C57.6523 73.8946 57.923 73.7027 58.1467 73.4361C58.3781 73.1603 58.522 72.8582 58.5785 72.5295C58.6303 72.1971 58.6018 71.8716 58.493 71.5532C58.3797 71.231 58.1874 70.956 57.9162 70.7285L54.014 67.4541L55.4255 65.7719L62.3257 71.5501L60.9142 73.2323L60.281 72.7128C60.3286 73.1601 60.2891 73.6086 60.1623 74.0583C60.031 74.5042 59.8091 74.9133 59.4967 75.2856C59.0764 75.7866 58.5708 76.1417 57.9801 76.351C57.3848 76.5564 56.7785 76.6115 56.1611 76.5165C55.5431 76.413 54.9812 76.1491 54.4757 75.7249ZM60.8609 59.2943L62.2725 57.6121L69.1669 63.3971L67.7553 65.0794L66.8368 64.4379C66.9866 64.8847 67.0269 65.3454 66.9577 65.8199C66.8877 66.286 66.6753 66.7305 66.3205 67.1533C65.8924 67.6635 65.3948 68.0605 64.8277 68.3444C64.2605 68.6282 63.6642 68.7975 63.0387 68.8523C62.417 68.9024 61.8022 68.8369 61.1944 68.6559C60.5905 68.4702 60.0334 68.1633 59.5232 67.7352C59.0314 67.3226 58.6447 66.8453 58.363 66.3036C58.0853 65.7572 57.9201 65.1839 57.8676 64.5837C57.8151 63.9836 57.8763 63.3926 58.0511 62.8109C58.2259 62.2292 58.5197 61.6924 58.9323 61.2006C59.3142 60.7456 59.7566 60.4237 60.2596 60.2349C60.7666 60.0415 61.2824 59.9495 61.807 59.9589L60.8609 59.2943ZM64.6656 65.8352C64.9664 65.4767 65.1429 65.0843 65.1951 64.6582C65.2472 64.232 65.1872 63.8135 65.015 63.4026C64.8382 62.988 64.5659 62.6264 64.1982 62.3178C63.8259 62.0054 63.4225 61.8001 62.988 61.7018C62.5489 61.5997 62.1221 61.6136 61.7076 61.7436C61.297 61.8689 60.9432 62.1086 60.6462 62.4625C60.3492 62.8164 60.1692 63.2176 60.1063 63.666C60.0425 64.106 60.0891 64.5406 60.2459 64.9698C60.4065 65.3944 60.673 65.7629 61.0453 66.0753C61.4176 66.3877 61.8287 66.5838 62.2786 66.6637C62.7285 66.7436 63.1646 66.7139 63.5868 66.5748C64.0129 66.431 64.3725 66.1845 64.6656 65.8352ZM70.3535 61.9829L60.0119 53.3053L61.4235 51.6231L71.7651 60.3007L70.3535 61.9829ZM73.1557 58.6435L62.8141 49.9658L64.2256 48.2836L74.5672 56.9612L73.1557 58.6435ZM72.6365 45.2606L74.1349 43.475L81.312 55.9239L79.8137 57.7095L77.4136 53.5691L68.4366 50.266L69.9812 48.4252L75.8167 50.7957L72.6365 45.2606Z" fill="white"/>
<defs>
<linearGradient id="paint0_linear_508_4019" x1="85.6596" y1="138.383" x2="85.1277" y2="185.516" gradientUnits="userSpaceOnUse">
<stop stop-color="#00C6B0"/>
<stop offset="1" stop-color="#009E8C"/>
</linearGradient>
</defs>
</svg>
