<svg width="50" height="50" viewBox="0 0 50 50" fill="none" xmlns="http://www.w3.org/2000/svg">
<g opacity="0.5" clip-path="url(#clip0_508_4062)">
<path d="M14.3231 35.0521L17.8127 29.0625C17.6391 29.0972 17.4481 29.1233 17.2397 29.1406C17.0314 29.158 16.8404 29.1667 16.6668 29.1667C14.3752 29.1667 12.4134 28.3507 10.7814 26.7188C9.14947 25.0868 8.3335 23.125 8.3335 20.8333C8.3335 18.5417 9.14947 16.5799 10.7814 14.9479C12.4134 13.316 14.3752 12.5 16.6668 12.5C18.9585 12.5 20.9203 13.316 22.5522 14.9479C24.1842 16.5799 25.0002 18.5417 25.0002 20.8333C25.0002 21.5625 24.9047 22.2743 24.7137 22.9688C24.5227 23.6632 24.2363 24.3403 23.8543 25L17.1356 36.7188C16.9967 36.9965 16.797 37.1962 16.5366 37.3177C16.2762 37.4392 16.0071 37.5 15.7293 37.5C15.1043 37.5 14.6356 37.2309 14.3231 36.6927C14.0106 36.1545 14.0106 35.6076 14.3231 35.0521ZM33.0731 35.0521L36.5627 29.0625C36.3891 29.0972 36.1981 29.1233 35.9897 29.1406C35.7814 29.158 35.5904 29.1667 35.4168 29.1667C33.1252 29.1667 31.1634 28.3507 29.5314 26.7188C27.8995 25.0868 27.0835 23.125 27.0835 20.8333C27.0835 18.5417 27.8995 16.5799 29.5314 14.9479C31.1634 13.316 33.1252 12.5 35.4168 12.5C37.7085 12.5 39.6703 13.316 41.3022 14.9479C42.9342 16.5799 43.7502 18.5417 43.7502 20.8333C43.7502 21.5625 43.6547 22.2743 43.4637 22.9688C43.2727 23.6632 42.9863 24.3403 42.6043 25L35.8856 36.7188C35.7467 36.9965 35.547 37.1962 35.2866 37.3177C35.0262 37.4392 34.7571 37.5 34.4793 37.5C33.8543 37.5 33.3856 37.2309 33.0731 36.6927C32.7606 36.1545 32.7606 35.6076 33.0731 35.0521Z" fill="#8B8B8B"/>
</g>
<defs>
<clipPath id="clip0_508_4062">
<rect width="50" height="50" fill="white"/>
</clipPath>
</defs>
</svg>
