<svg width="48" height="68" viewBox="0 0 48 68" fill="none" xmlns="http://www.w3.org/2000/svg">
<path d="M23.9998 67.3334C19.3887 67.3334 15.4582 65.7084 12.2082 62.4584C8.95817 59.2084 7.33317 55.2779 7.33317 50.6667V20.6667C5.49984 20.6667 3.93039 20.014 2.62484 18.7084C1.31928 17.4029 0.666504 15.8334 0.666504 14.0001V7.33341C0.666504 5.50008 1.31928 3.93064 2.62484 2.62508C3.93039 1.31953 5.49984 0.666748 7.33317 0.666748H40.6665C42.4998 0.666748 44.0693 1.31953 45.3748 2.62508C46.6804 3.93064 47.3332 5.50008 47.3332 7.33341V14.0001C47.3332 15.8334 46.6804 17.4029 45.3748 18.7084C44.0693 20.014 42.4998 20.6667 40.6665 20.6667V50.6667C40.6665 55.2779 39.0415 59.2084 35.7915 62.4584C32.5415 65.7084 28.6109 67.3334 23.9998 67.3334ZM5.6665 15.6667H42.3332V5.66675H5.6665V15.6667ZM23.9803 62.3334C27.2155 62.3334 29.9721 61.1992 32.2498 58.9307C34.5276 56.6621 35.6665 53.9075 35.6665 50.6667V49.0001H26.4998C25.7915 49.0001 25.1978 48.7591 24.7186 48.2772C24.2394 47.7952 23.9998 47.1979 23.9998 46.4855C23.9998 45.773 24.2394 45.1806 24.7186 44.7084C25.1978 44.2362 25.7915 44.0001 26.4998 44.0001H35.6665V35.6667H26.4998C25.7915 35.6667 25.1978 35.4258 24.7186 34.9438C24.2394 34.4618 23.9998 33.8646 23.9998 33.1522C23.9998 32.4397 24.2394 31.8473 24.7186 31.3751C25.1978 30.9029 25.7915 30.6667 26.4998 30.6667H35.6665V20.6667H12.3332V50.6667C12.3332 53.9075 13.4655 56.6621 15.7303 58.9307C17.9949 61.1992 20.7449 62.3334 23.9803 62.3334Z" fill="url(#paint0_linear_508_4000)"/>
<defs>
<linearGradient id="paint0_linear_508_4000" x1="24" y1="-28.5" x2="24" y2="89" gradientUnits="userSpaceOnUse">
<stop stop-color="#005ABE"/>
<stop offset="1" stop-color="#00C6B0"/>
</linearGradient>
</defs>
</svg>
