<svg width="54" height="66" viewBox="0 0 54 66" fill="none" xmlns="http://www.w3.org/2000/svg">
<path d="M27.0002 60.7501C34.389 54.0279 39.8474 47.9306 43.3752 42.4584C46.9029 36.9862 48.6668 32.1667 48.6668 28.0001C48.6668 21.4562 46.5754 16.098 42.3925 11.9255C38.2097 7.753 33.0789 5.66675 27.0002 5.66675C20.9214 5.66675 15.7907 7.753 11.6078 11.9255C7.42494 16.098 5.3335 21.4562 5.3335 28.0001C5.3335 32.1667 7.13905 36.9862 10.7502 42.4584C14.3613 47.9306 19.7779 54.0279 27.0002 60.7501ZM26.9793 65.6667C26.3821 65.6667 25.7918 65.5695 25.2085 65.3751C24.6252 65.1806 24.1113 64.8612 23.6668 64.4167C21.3335 62.3056 18.8057 59.8751 16.0835 57.1251C13.3613 54.3751 10.8335 51.4167 8.50016 48.2501C6.16683 45.0834 4.22238 41.7779 2.66683 38.3334C1.11127 34.889 0.333496 31.4445 0.333496 28.0001C0.333496 19.6667 3.01405 13.0279 8.37516 8.08342C13.7363 3.13897 19.9446 0.666748 27.0002 0.666748C34.0557 0.666748 40.264 3.13897 45.6252 8.08342C50.9863 13.0279 53.6668 19.6667 53.6668 28.0001C53.6668 31.4445 52.889 34.889 51.3335 38.3334C49.7779 41.7779 47.8335 45.0834 45.5002 48.2501C43.1668 51.4167 40.639 54.3751 37.9168 57.1251C35.1946 59.8751 32.6668 62.3056 30.3335 64.4167C29.889 64.8612 29.3682 65.1806 28.771 65.3751C28.1738 65.5695 27.5765 65.6667 26.9793 65.6667ZM27.0076 33.1667C28.6137 33.1667 29.9863 32.5948 31.1252 31.451C32.264 30.3072 32.8335 28.9322 32.8335 27.326C32.8335 25.7198 32.2616 24.3473 31.1177 23.2084C29.974 22.0695 28.599 21.5001 26.9927 21.5001C25.3866 21.5001 24.014 22.072 22.8752 23.2158C21.7363 24.3596 21.1668 25.7346 21.1668 27.3408C21.1668 28.947 21.7387 30.3195 22.8826 31.4584C24.0264 32.5973 25.4014 33.1667 27.0076 33.1667Z" fill="url(#paint0_linear_508_4004)"/>
<defs>
<linearGradient id="paint0_linear_508_4004" x1="27" y1="-9.49976" x2="27" y2="80.5002" gradientUnits="userSpaceOnUse">
<stop stop-color="#005ABE"/>
<stop offset="1" stop-color="#00C6B0"/>
</linearGradient>
</defs>
</svg>
