<svg width="54" height="59" viewBox="0 0 54 59" fill="none" xmlns="http://www.w3.org/2000/svg">
<path d="M22.8335 36.5V40.6667C22.8335 41.8241 23.2396 42.8079 24.0517 43.6181C24.8637 44.4282 25.8498 44.8333 27.01 44.8333C28.1701 44.8333 29.1529 44.4282 29.9585 43.6181C30.764 42.8079 31.1668 41.8241 31.1668 40.6667V36.5H35.3335C36.4909 36.5 37.4747 36.0939 38.2849 35.2818C39.0951 34.4698 39.5002 33.4837 39.5002 32.3235C39.5002 31.1634 39.0951 30.1806 38.2849 29.375C37.4747 28.5694 36.4909 28.1667 35.3335 28.1667H31.1668V24C31.1668 22.8426 30.7608 21.8588 29.9487 21.0486C29.1366 20.2384 28.1505 19.8333 26.9903 19.8333C25.8302 19.8333 24.8474 20.2384 24.0418 21.0486C23.2363 21.8588 22.8335 22.8426 22.8335 24V28.1667H18.6668C17.5094 28.1667 16.5256 28.5727 15.7154 29.3848C14.9052 30.1969 14.5002 31.183 14.5002 32.3432C14.5002 33.5033 14.9052 34.4861 15.7154 35.2917C16.5256 36.0972 17.5094 36.5 18.6668 36.5H22.8335ZM5.3335 59C3.9585 59 2.78141 58.5104 1.80225 57.5312C0.823079 56.5521 0.333496 55.375 0.333496 54V21.5C0.333496 20.7083 0.510579 19.9583 0.864746 19.25C1.21891 18.5417 1.7085 17.9583 2.3335 17.5L24.0002 1.25C24.8713 0.583333 25.8668 0.25 26.9868 0.25C28.1068 0.25 29.1113 0.583333 30.0002 1.25L51.6668 17.5C52.2918 17.9583 52.7814 18.5417 53.1356 19.25C53.4897 19.9583 53.6668 20.7083 53.6668 21.5V54C53.6668 55.375 53.1772 56.5521 52.1981 57.5312C51.2189 58.5104 50.0418 59 48.6668 59H5.3335ZM5.3335 54H48.6668V21.1667L27.0002 5.41667L5.3335 21.1667V54Z" fill="url(#paint0_linear_508_3974)"/>
<defs>
<linearGradient id="paint0_linear_508_3974" x1="27" y1="-17" x2="27" y2="79" gradientUnits="userSpaceOnUse">
<stop stop-color="#005ABE"/>
<stop offset="1" stop-color="#00C6B0"/>
</linearGradient>
</defs>
</svg>
