<svg width="54" height="54" viewBox="0 0 54 54" fill="none" xmlns="http://www.w3.org/2000/svg">
<path d="M26.9891 39.9166C26.6631 39.9166 26.3613 39.861 26.0835 39.7499C25.8057 39.6388 25.5279 39.4444 25.2502 39.1666L12.6668 26.5833C12.1668 26.0681 11.9307 25.4671 11.9585 24.7803C11.9863 24.0934 12.2393 23.4999 12.7176 22.9999C13.2393 22.4999 13.8474 22.2499 14.5418 22.2499C15.2363 22.2499 15.8335 22.4999 16.3335 22.9999L24.5002 31.2499V2.83325C24.5002 2.12492 24.7411 1.53117 25.2231 1.052C25.7051 0.572835 26.3023 0.333252 27.0147 0.333252C27.7272 0.333252 28.3196 0.572835 28.7918 1.052C29.264 1.53117 29.5002 2.12492 29.5002 2.83325V31.2499L37.7502 22.9999C38.239 22.4999 38.8196 22.2638 39.4918 22.2916C40.1641 22.3194 40.761 22.5833 41.2827 23.0833C41.761 23.5833 42.0002 24.1805 42.0002 24.8749C42.0002 25.5694 41.7502 26.1666 41.2502 26.6666L28.7502 39.1666C28.4724 39.4444 28.1909 39.6388 27.9057 39.7499C27.6205 39.861 27.315 39.9166 26.9891 39.9166ZM5.3335 53.6666C4.00016 53.6666 2.8335 53.1666 1.8335 52.1666C0.833496 51.1666 0.333496 49.9999 0.333496 48.6666V39.2499C0.333496 38.5416 0.574469 37.9478 1.05641 37.4687C1.53841 36.9895 2.13564 36.7499 2.84808 36.7499C3.56058 36.7499 4.15294 36.9895 4.62516 37.4687C5.09738 37.9478 5.3335 38.5416 5.3335 39.2499V48.6666H48.6668V39.2499C48.6668 38.5416 48.9078 37.9478 49.3897 37.4687C49.8717 36.9895 50.469 36.7499 51.1814 36.7499C51.8939 36.7499 52.4863 36.9895 52.9585 37.4687C53.4307 37.9478 53.6668 38.5416 53.6668 39.2499V48.6666C53.6668 49.9999 53.1668 51.1666 52.1668 52.1666C51.1668 53.1666 50.0002 53.6666 48.6668 53.6666H5.3335Z" fill="url(#paint0_linear_508_4002)"/>
<defs>
<linearGradient id="paint0_linear_508_4002" x1="27" y1="-15.5" x2="27" y2="68.5" gradientUnits="userSpaceOnUse">
<stop stop-color="#005ABE"/>
<stop offset="1" stop-color="#00C6B0"/>
</linearGradient>
</defs>
</svg>
