<svg width="30" height="28" viewBox="0 0 30 28" fill="none" xmlns="http://www.w3.org/2000/svg">
<path d="M3.45023 27.5C2.4058 27.5 1.66345 27.0125 1.22318 26.0375C0.782879 25.0625 0.925229 24.175 1.65023 23.375L10.9502 12.875V2.75H9.00023C8.68148 2.75 8.41429 2.64156 8.19867 2.42469C7.98304 2.20779 7.87523 1.93904 7.87523 1.61844C7.87523 1.29781 7.98304 1.03125 8.19867 0.81875C8.41429 0.60625 8.68148 0.5 9.00023 0.5H21.0002C21.319 0.5 21.5862 0.608437 21.8018 0.825312C22.0174 1.04221 22.1252 1.31096 22.1252 1.63156C22.1252 1.95219 22.0174 2.21875 21.8018 2.43125C21.5862 2.64375 21.319 2.75 21.0002 2.75H19.0502V12.875L28.3502 23.375C29.0752 24.175 29.2176 25.0625 28.7773 26.0375C28.337 27.0125 27.5947 27.5 26.5502 27.5H3.45023ZM3.00023 25.25H27.0002L16.8002 13.7V2.75H13.2002V13.7L3.00023 25.25Z" fill="url(#paint0_linear_508_4052)"/>
<defs>
<linearGradient id="paint0_linear_508_4052" x1="15.0005" y1="-4.51429" x2="15.0005" y2="33.8" gradientUnits="userSpaceOnUse">
<stop stop-color="#005ABE"/>
<stop offset="1" stop-color="#00C6B0"/>
</linearGradient>
</defs>
</svg>
