<svg width="21" height="21" viewBox="0 0 21 21" fill="none" xmlns="http://www.w3.org/2000/svg">
<path d="M9.18018 11.5909V14.5641C9.18018 14.8989 9.29782 15.1835 9.5331 15.4179C9.76841 15.6523 10.0541 15.7695 10.3902 15.7695C10.7264 15.7695 11.0105 15.6523 11.2427 15.4179C11.4748 15.1835 11.5909 14.8989 11.5909 14.5641V11.5909H14.5641C14.8989 11.5909 15.1835 11.4732 15.4179 11.238C15.6523 11.0027 15.7695 10.7169 15.7695 10.3808C15.7695 10.0447 15.6523 9.76053 15.4179 9.52839C15.1835 9.29625 14.8989 9.18018 14.5641 9.18018H11.5909V6.20696C11.5909 5.87214 11.4732 5.58754 11.238 5.35317C11.0027 5.11879 10.7169 5.0016 10.3808 5.0016C10.0447 5.0016 9.76053 5.11879 9.52839 5.35317C9.29625 5.58754 9.18018 5.87214 9.18018 6.20696V9.18018H6.20696C5.87214 9.18018 5.58754 9.29782 5.35317 9.5331C5.11879 9.76841 5.0016 10.0541 5.0016 10.3902C5.0016 10.7264 5.11879 11.0105 5.35317 11.2427C5.58754 11.4748 5.87214 11.5909 6.20696 11.5909H9.18018ZM2.34982 20.0284C1.92125 20.0284 1.54625 19.8677 1.22482 19.5462C0.90339 19.2248 0.742676 18.8498 0.742676 18.4212V2.34982C0.742676 1.92125 0.90339 1.54625 1.22482 1.22482C1.54625 0.90339 1.92125 0.742676 2.34982 0.742676H18.4212C18.8498 0.742676 19.2248 0.90339 19.5462 1.22482C19.8677 1.54625 20.0284 1.92125 20.0284 2.34982V18.4212C20.0284 18.8498 19.8677 19.2248 19.5462 19.5462C19.2248 19.8677 18.8498 20.0284 18.4212 20.0284H2.34982ZM2.34982 18.4212H18.4212V2.34982H2.34982V18.4212Z" fill="url(#paint0_linear_508_4054)"/>
<defs>
<linearGradient id="paint0_linear_508_4054" x1="10.3855" y1="-3.75732" x2="10.3855" y2="24.3447" gradientUnits="userSpaceOnUse">
<stop stop-color="#005ABE"/>
<stop offset="1" stop-color="#00C6B0"/>
</linearGradient>
</defs>
</svg>
