<svg width="310" height="120" viewBox="0 0 310 120" fill="none" xmlns="http://www.w3.org/2000/svg">
<mask id="mask0_508_4142" style="mask-type:luminance" maskUnits="userSpaceOnUse" x="17" y="12" width="55" height="93">
<path d="M54.7167 23.3026C47.6529 31.2434 43.1515 41.8495 35.0527 48.4833C28.772 52.0766 23.9121 50.4493 17.2729 51.7142L19.4801 52.2285C29.0982 53.9254 35.303 53.3433 42.3393 45.4977C50.0893 36.8631 53.22 29.585 60.463 23.5314C50.4978 39.327 46.2466 57.6652 49.7616 77.898C50.6205 82.866 55.897 102.625 59.7478 104.258C57.2466 96.3513 56.2026 87.9475 56.6801 79.5656C51.5263 58.4395 55.4384 37.383 69.5967 18.891C70.6833 17.4687 73.7026 13.8827 70.3443 12.6307C70.1292 12.5538 69.9046 12.5167 69.6791 12.5208C65.9268 12.5281 57.0094 20.7271 54.7167 23.3026Z" fill="white"/>
</mask>
<g mask="url(#mask0_508_4142)">
<path d="M73.7043 12.5283H17.2729V104.265H73.7043V12.5283Z" fill="white"/>
</g>
<mask id="mask1_508_4142" style="mask-type:luminance" maskUnits="userSpaceOnUse" x="56" y="43" width="98" height="62">
<path d="M72.7581 43.1674H72.7032C71.5617 43.1857 70.2491 43.7531 68.7152 45.1205C66.9569 46.6948 65.5619 48.5509 64.1395 50.4657C58.771 59.5377 56.9949 69.2688 56.6446 79.5728C56.1678 87.9547 57.2119 96.3583 59.7123 104.265H62.0001C64.4026 103.349 64.3009 101.025 64.1282 98.8354C63.597 92.2657 63.4823 85.3646 63.9667 78.7875C64.4688 71.8462 66.4693 59.0838 71.7587 53.5977C73.9933 59.4023 76.6121 63.4825 82.7039 63.1018C88.9895 62.6862 147.539 58.9611 153.171 58.8916C147.468 58.952 92.0621 57.4949 80.9989 53.4897C79.239 52.7026 77.5163 43.1619 72.7646 43.1582" fill="white"/>
</mask>
<g mask="url(#mask1_508_4142)">
<path d="M153.164 43.167H56.1665V104.264H153.164V43.167Z" fill="white"/>
</g>
<path fill-rule="evenodd" clip-rule="evenodd" d="M260.663 87.7752C261.285 85.2765 263.153 84.0281 265.438 84.0281C267.859 84.0281 269.589 85.2765 269.865 87.7752H260.663ZM273.914 91.709C274.571 83.7883 271.008 79.8106 265.299 79.8106C259.761 79.8106 256.233 84.0208 256.233 89.8784C256.233 96.0418 259.728 100.139 265.61 100.139C268.203 100.139 271.145 99.1244 272.944 97.0175L270.246 94.0136C269.277 95.1449 267.236 95.8075 265.678 95.8075C262.704 95.8075 260.868 94.0923 260.592 91.7108L273.914 91.709ZM252.495 99.6351V89.5307C252.495 83.4899 249.279 80.0888 245.267 80.0888C243.121 80.0888 241.392 81.0645 239.661 82.9755L239.385 80.3597H235.613V99.6351H239.798V89.8034C239.798 86.8746 241.563 84.418 244.157 84.418C246.855 84.418 248.273 86.6421 248.273 89.5691V99.637L252.495 99.6351ZM226.445 74.9798C226.445 78.6848 231.426 78.6848 231.426 74.9798C231.426 71.2748 226.445 71.2712 226.445 74.9798ZM231.047 80.3231V99.6351H226.826V80.3231H231.047ZM218.074 72.3658V99.6406H222.259V72.3658H218.074ZM200.704 87.7752C201.327 85.2765 203.195 84.0281 205.478 84.0281C207.9 84.0281 209.63 85.2765 209.907 87.7752H200.704ZM213.953 91.709C214.612 83.7883 211.047 79.8106 205.338 79.8106C199.803 79.8106 196.274 84.0208 196.274 89.8784C196.274 96.0418 199.768 100.139 205.65 100.139C208.244 100.139 211.188 99.1244 212.985 97.0175L210.285 94.0136C209.316 95.1449 207.277 95.8075 205.717 95.8075C202.745 95.8075 200.909 94.0923 200.633 91.7108L213.953 91.709ZM187.831 99.6351V84.8482H192.849V80.6746H187.831V79.3932C187.831 77.0538 188.939 75.961 190.392 75.961C191.257 75.961 192.087 76.3124 192.986 76.9769L194.543 73.4257C193.229 72.4359 191.693 71.894 190.116 71.8643C186.691 71.8643 183.611 74.2439 183.611 79.3932V80.6746H180.427V84.8482H183.611V99.6351H187.831ZM172.954 74.9798C172.954 78.6848 177.937 78.6848 177.937 74.9798C177.937 71.2748 172.954 71.2712 172.954 74.9798ZM177.557 80.3231V99.6351H173.335V80.3231H177.557ZM164.583 72.3658V99.6406H168.768V72.3658H164.583ZM156.833 80.4018L153.718 88.8222L151.955 94.1308L150.328 88.7069L147.735 80.4018H142.82L149.635 99.3239L146.451 107.671H151.086L161.502 80.3963L156.833 80.4018ZM135.554 72.3658V83.0158C134.551 81.026 131.75 79.9332 129.95 79.9332C124.969 79.9332 121.267 83.3673 121.267 90.0011C121.267 96.3219 125.038 100.069 130.055 100.069C132.13 100.069 134.241 99.2873 135.554 96.9845L135.832 99.6388H139.775V72.364L135.554 72.3658ZM130.329 84.3869C132.993 84.3869 135.276 86.6476 135.276 90.0029C135.276 93.4809 132.993 95.6611 130.329 95.6611C127.63 95.6611 125.486 93.3601 125.486 90.0029C125.486 86.5249 127.63 84.3869 130.329 84.3869ZM104.693 87.7752C105.316 85.2765 107.183 84.0208 109.469 84.0208C111.891 84.0208 113.62 85.2692 113.896 87.7679L104.693 87.7752ZM117.942 91.709C118.601 83.7883 115.036 79.8106 109.328 79.8106C103.792 79.8106 100.266 84.0208 100.266 89.8784C100.266 96.0418 103.761 100.139 109.642 100.139C112.238 100.139 115.178 99.1244 116.977 97.0175L114.279 94.0136C113.31 95.1449 111.269 95.8075 109.711 95.8075C106.735 95.8075 104.903 94.0923 104.625 91.7108L117.942 91.709ZM91.6133 99.6351H96.1809V72.3603H90.9561L83.3789 84.0757L75.8033 72.3603H70.543V99.6351H75.1106V79.8106L82.8283 91.6907H83.726L91.6149 79.849L91.6133 99.6351Z" fill="white"/>
<path fill-rule="evenodd" clip-rule="evenodd" d="M280.334 77.3765H280.6V73.4043H280.268L278.94 75.7144L277.595 73.4043H277.273V77.3765H277.547V73.8528L278.902 76.1739H278.992L280.335 73.8528L280.334 77.3765ZM275.219 77.3765H275.488V73.6935H276.759V73.4226H273.95V73.6935H275.219V77.3765Z" fill="white"/>
<mask id="mask2_508_4142" style="mask-type:luminance" maskUnits="userSpaceOnUse" x="17" y="12" width="55" height="93">
<path d="M54.7167 23.3026C47.6529 31.2434 43.1515 41.8495 35.0527 48.4833C28.772 52.0766 23.9121 50.4493 17.2729 51.7142L19.4801 52.2285C29.0982 53.9254 35.303 53.3433 42.3393 45.4977C50.0893 36.8631 53.22 29.585 60.463 23.5314C50.4978 39.327 46.2466 57.6652 49.7616 77.898C50.6205 82.866 55.897 102.625 59.7478 104.258C57.2466 96.3513 56.2026 87.9475 56.6801 79.5656C51.5263 58.4395 55.4384 37.383 69.5967 18.891C70.6833 17.4687 73.7026 13.8827 70.3443 12.6307C70.1292 12.5538 69.9046 12.5167 69.6791 12.5208C65.9268 12.5281 57.0094 20.7271 54.7167 23.3026Z" fill="white"/>
</mask>
<g mask="url(#mask2_508_4142)">
<path d="M73.7043 12.5283H17.2729V104.265H73.7043V12.5283Z" fill="white"/>
</g>
<mask id="mask3_508_4142" style="mask-type:luminance" maskUnits="userSpaceOnUse" x="56" y="43" width="98" height="62">
<path d="M72.7581 43.1674H72.7032C71.5617 43.1857 70.2491 43.7531 68.7152 45.1205C66.9569 46.6948 65.5619 48.5509 64.1395 50.4657C58.771 59.5377 56.9949 69.2688 56.6446 79.5728C56.1678 87.9547 57.2119 96.3583 59.7123 104.265H62.0001C64.4026 103.349 64.3009 101.025 64.1282 98.8354C63.597 92.2657 63.4823 85.3646 63.9667 78.7875C64.4688 71.8462 66.4693 59.0838 71.7587 53.5977C73.9933 59.4023 76.6121 63.4825 82.7039 63.1018C88.9895 62.6862 147.539 58.9611 153.171 58.8916C147.468 58.952 92.0621 57.4949 80.9989 53.4897C79.239 52.7026 77.5163 43.1619 72.7646 43.1582" fill="white"/>
</mask>
<g mask="url(#mask3_508_4142)">
<path d="M153.164 43.167H56.1665V104.264H153.164V43.167Z" fill="white"/>
</g>
<path fill-rule="evenodd" clip-rule="evenodd" d="M260.663 87.7752C261.285 85.2765 263.153 84.0281 265.438 84.0281C267.859 84.0281 269.589 85.2765 269.865 87.7752H260.663ZM273.914 91.709C274.571 83.7883 271.008 79.8106 265.299 79.8106C259.761 79.8106 256.233 84.0208 256.233 89.8784C256.233 96.0418 259.728 100.139 265.61 100.139C268.203 100.139 271.145 99.1244 272.944 97.0175L270.246 94.0136C269.277 95.1449 267.236 95.8075 265.678 95.8075C262.704 95.8075 260.868 94.0923 260.592 91.7108L273.914 91.709ZM252.495 99.6351V89.5307C252.495 83.4899 249.279 80.0888 245.267 80.0888C243.121 80.0888 241.392 81.0645 239.661 82.9755L239.385 80.3597H235.613V99.6351H239.798V89.8034C239.798 86.8746 241.563 84.418 244.157 84.418C246.855 84.418 248.273 86.6421 248.273 89.5691V99.637L252.495 99.6351ZM226.445 74.9798C226.445 78.6848 231.426 78.6848 231.426 74.9798C231.426 71.2748 226.445 71.2712 226.445 74.9798ZM231.047 80.3231V99.6351H226.826V80.3231H231.047ZM218.074 72.3658V99.6406H222.259V72.3658H218.074ZM200.704 87.7752C201.327 85.2765 203.195 84.0281 205.478 84.0281C207.9 84.0281 209.63 85.2765 209.907 87.7752H200.704ZM213.953 91.709C214.612 83.7883 211.047 79.8106 205.338 79.8106C199.803 79.8106 196.274 84.0208 196.274 89.8784C196.274 96.0418 199.768 100.139 205.65 100.139C208.244 100.139 211.188 99.1244 212.985 97.0175L210.285 94.0136C209.316 95.1449 207.277 95.8075 205.717 95.8075C202.745 95.8075 200.909 94.0923 200.633 91.7108L213.953 91.709ZM187.831 99.6351V84.8482H192.849V80.6746H187.831V79.3932C187.831 77.0538 188.939 75.961 190.392 75.961C191.257 75.961 192.087 76.3124 192.986 76.9769L194.543 73.4257C193.229 72.4359 191.693 71.894 190.116 71.8643C186.691 71.8643 183.611 74.2439 183.611 79.3932V80.6746H180.427V84.8482H183.611V99.6351H187.831ZM172.954 74.9798C172.954 78.6848 177.937 78.6848 177.937 74.9798C177.937 71.2748 172.954 71.2712 172.954 74.9798ZM177.557 80.3231V99.6351H173.335V80.3231H177.557ZM164.583 72.3658V99.6406H168.768V72.3658H164.583ZM156.833 80.4018L153.718 88.8222L151.955 94.1308L150.328 88.7069L147.735 80.4018H142.82L149.635 99.3239L146.451 107.671H151.086L161.502 80.3963L156.833 80.4018ZM135.554 72.3658V83.0158C134.551 81.026 131.75 79.9332 129.95 79.9332C124.969 79.9332 121.267 83.3673 121.267 90.0011C121.267 96.3219 125.038 100.069 130.055 100.069C132.13 100.069 134.241 99.2873 135.554 96.9845L135.832 99.6388H139.775V72.364L135.554 72.3658ZM130.329 84.3869C132.993 84.3869 135.276 86.6476 135.276 90.0029C135.276 93.4809 132.993 95.6611 130.329 95.6611C127.63 95.6611 125.486 93.3601 125.486 90.0029C125.486 86.5249 127.63 84.3869 130.329 84.3869ZM104.693 87.7752C105.316 85.2765 107.183 84.0208 109.469 84.0208C111.891 84.0208 113.62 85.2692 113.896 87.7679L104.693 87.7752ZM117.942 91.709C118.601 83.7883 115.036 79.8106 109.328 79.8106C103.792 79.8106 100.266 84.0208 100.266 89.8784C100.266 96.0418 103.761 100.139 109.642 100.139C112.238 100.139 115.178 99.1244 116.977 97.0175L114.279 94.0136C113.31 95.1449 111.269 95.8075 109.711 95.8075C106.735 95.8075 104.903 94.0923 104.625 91.7108L117.942 91.709ZM91.6133 99.6351H96.1809V72.3603H90.9561L83.3789 84.0757L75.8033 72.3603H70.543V99.6351H75.1106V79.8106L82.8283 91.6907H83.726L91.6149 79.849L91.6133 99.6351Z" fill="white"/>
<path fill-rule="evenodd" clip-rule="evenodd" d="M280.334 77.3765H280.6V73.4043H280.268L278.94 75.7144L277.595 73.4043H277.273V77.3765H277.547V73.8528L278.902 76.1739H278.992L280.335 73.8528L280.334 77.3765ZM275.219 77.3765H275.488V73.6935H276.759V73.4226H273.95V73.6935H275.219V77.3765Z" fill="white"/>
</svg>
