<svg width="189" height="64" viewBox="0 0 189 64" fill="none" xmlns="http://www.w3.org/2000/svg">
<mask id="mask0_508_5423" style="mask-type:luminance" maskUnits="userSpaceOnUse" x="10" y="6" width="34" height="50">
<path d="M33.3594 12.428C29.0528 16.6631 26.3083 22.3197 21.3707 25.8577C17.5415 27.7742 14.5785 26.9063 10.5308 27.5809L11.8764 27.8552C17.7403 28.7602 21.5233 28.4498 25.8132 24.2654C30.5382 19.6603 32.4469 15.7786 36.8628 12.5501C30.7872 20.9744 28.1954 30.7548 30.3384 41.5456C30.862 44.1952 34.079 54.7332 36.4267 55.604C34.9018 51.3873 34.2653 46.9053 34.5564 42.435C31.4143 31.1677 33.7994 19.9376 42.4314 10.0752C43.0939 9.31663 44.9347 7.4041 42.8872 6.73633C42.756 6.69532 42.6191 6.67554 42.4816 6.67775C40.1939 6.68165 34.7572 11.0544 33.3594 12.428Z" fill="white"/>
</mask>
<g mask="url(#mask0_508_5423)">
<path d="M44.9357 6.68188H10.5308V55.6081H44.9357V6.68188Z" fill="url(#paint0_linear_508_5423)"/>
</g>
<mask id="mask1_508_5423" style="mask-type:luminance" maskUnits="userSpaceOnUse" x="34" y="23" width="60" height="33">
<path d="M44.3589 23.0226H44.3254C43.6294 23.0324 42.8291 23.335 41.894 24.0643C40.822 24.9039 39.9715 25.8939 39.1043 26.915C35.8312 31.7535 34.7484 36.9434 34.5348 42.4389C34.2441 46.9092 34.8807 51.3911 36.4051 55.6079H37.8C39.2647 55.1198 39.2027 53.8799 39.0974 52.7122C38.7735 49.2084 38.7036 45.5278 38.9989 42.02C39.3051 38.318 40.5247 31.5114 43.7495 28.5855C45.1119 31.6812 46.7086 33.8574 50.4226 33.6543C54.2548 33.4327 89.9512 31.446 93.3847 31.4089C89.9079 31.4411 56.1281 30.664 49.3831 28.5279C48.3102 28.1081 47.2598 23.0197 44.3628 23.0177" fill="white"/>
</mask>
<g mask="url(#mask1_508_5423)">
<path d="M93.381 23.0227H34.2437V55.608H93.381V23.0227Z" fill="url(#paint1_linear_508_5423)"/>
</g>
<path fill-rule="evenodd" clip-rule="evenodd" d="M158.92 46.8136C159.299 45.481 160.438 44.8151 161.831 44.8151C163.308 44.8151 164.362 45.481 164.53 46.8136H158.92ZM166.999 48.9116C167.4 44.6872 165.227 42.5658 161.747 42.5658C158.37 42.5658 156.219 44.8112 156.219 47.9353C156.219 51.2225 158.35 53.4074 161.937 53.4074C163.517 53.4074 165.311 52.8665 166.408 51.7428L164.763 50.1407C164.172 50.7441 162.928 51.0975 161.978 51.0975C160.165 51.0975 159.045 50.1827 158.877 48.9126L166.999 48.9116ZM153.94 53.1389V47.7498C153.94 44.5281 151.98 42.7142 149.533 42.7142C148.225 42.7142 147.171 43.2345 146.116 44.2538L145.947 42.8587H143.648V53.1389H146.199V47.8953C146.199 46.3333 147.275 45.0231 148.857 45.0231C150.502 45.0231 151.366 46.2093 151.366 47.7703V53.1399L153.94 53.1389ZM138.059 39.9894C138.059 41.9654 141.095 41.9654 141.095 39.9894C141.095 38.0134 138.059 38.0114 138.059 39.9894ZM140.864 42.8391V53.1389H138.291V42.8391H140.864ZM132.955 38.5953V53.1418H135.506V38.5953H132.955ZM122.365 46.8136C122.745 45.481 123.884 44.8151 125.275 44.8151C126.752 44.8151 127.806 45.481 127.976 46.8136H122.365ZM130.442 48.9116C130.844 44.6872 128.671 42.5658 125.19 42.5658C121.815 42.5658 119.664 44.8112 119.664 47.9353C119.664 51.2225 121.794 53.4074 125.38 53.4074C126.962 53.4074 128.756 52.8665 129.852 51.7428L128.206 50.1407C127.615 50.7441 126.372 51.0975 125.421 51.0975C123.609 51.0975 122.49 50.1827 122.321 48.9126L130.442 48.9116ZM114.516 53.1389V45.2525H117.576V43.0266H114.516V42.3432C114.516 41.0955 115.192 40.5127 116.077 40.5127C116.605 40.5127 117.111 40.7001 117.659 41.0545L118.608 39.1605C117.807 38.6326 116.871 38.3436 115.909 38.3278C113.821 38.3278 111.943 39.5969 111.943 42.3432V43.0266H110.002V45.2525H111.943V53.1389H114.516ZM105.446 39.9894C105.446 41.9654 108.484 41.9654 108.484 39.9894C108.484 38.0134 105.446 38.0114 105.446 39.9894ZM108.253 42.8391V53.1389H105.679V42.8391H108.253ZM100.342 38.5953V53.1418H102.894V38.5953H100.342ZM95.6172 42.8811L93.7184 47.372L92.6434 50.2032L91.6512 47.3105L90.0703 42.8811H87.0738L91.2289 52.9729L89.2877 57.4248H92.1138L98.4641 42.8782L95.6172 42.8811ZM82.6442 38.5953V44.2753C82.0329 43.214 80.325 42.6312 79.2274 42.6312C76.1906 42.6312 73.9334 44.4627 73.9334 48.0007C73.9334 51.3718 76.2329 53.3703 79.2914 53.3703C80.5563 53.3703 81.8439 52.9534 82.6442 51.7252L82.8135 53.1409H85.2173V38.5943L82.6442 38.5953ZM79.4587 45.0065C81.0829 45.0065 82.4748 46.2122 82.4748 48.0017C82.4748 49.8566 81.0829 51.0194 79.4587 51.0194C77.8129 51.0194 76.5056 49.7922 76.5056 48.0017C76.5056 46.1468 77.8129 45.0065 79.4587 45.0065ZM63.8288 46.8136C64.2088 45.481 65.3467 44.8112 66.7406 44.8112C68.2172 44.8112 69.2714 45.4771 69.4398 46.8097L63.8288 46.8136ZM71.9066 48.9116C72.3082 44.6872 70.1347 42.5658 66.655 42.5658C63.2795 42.5658 61.1297 44.8112 61.1297 47.9353C61.1297 51.2225 63.2608 53.4074 66.8459 53.4074C68.4288 53.4074 70.2213 52.8665 71.3179 51.7428L69.673 50.1407C69.0824 50.7441 67.8382 51.0975 66.8883 51.0975C65.0741 51.0975 63.9568 50.1827 63.7875 48.9126L71.9066 48.9116ZM55.8544 53.1389H58.6392V38.5923H55.4538L50.8341 44.8405L46.2154 38.5923H43.0083V53.1389H45.7931V42.5658L50.4984 48.9018H51.0457L55.8554 42.5863L55.8544 53.1389Z" fill="#007CBE"/>
<path fill-rule="evenodd" clip-rule="evenodd" d="M170.913 41.2673H171.076V39.1488H170.873L170.064 40.3809L169.244 39.1488H169.047V41.2673H169.214V39.388L170.04 40.6259H170.095L170.914 39.388L170.913 41.2673ZM167.795 41.2673H167.959V39.3031H168.734V39.1586H167.021V39.3031H167.795V41.2673Z" fill="#007CBE"/>
<mask id="mask2_508_5423" style="mask-type:luminance" maskUnits="userSpaceOnUse" x="10" y="6" width="34" height="50">
<path d="M33.3594 12.428C29.0528 16.6631 26.3083 22.3197 21.3707 25.8577C17.5415 27.7742 14.5785 26.9063 10.5308 27.5809L11.8764 27.8552C17.7403 28.7602 21.5233 28.4498 25.8132 24.2654C30.5382 19.6603 32.4469 15.7786 36.8628 12.5501C30.7872 20.9744 28.1954 30.7548 30.3384 41.5456C30.862 44.1952 34.079 54.7332 36.4267 55.604C34.9018 51.3873 34.2653 46.9053 34.5564 42.435C31.4143 31.1677 33.7994 19.9376 42.4314 10.0752C43.0939 9.31663 44.9347 7.4041 42.8872 6.73633C42.756 6.69532 42.6191 6.67554 42.4816 6.67775C40.1939 6.68165 34.7572 11.0544 33.3594 12.428Z" fill="white"/>
</mask>
<g mask="url(#mask2_508_5423)">
<path d="M44.9357 6.68188H10.5308V55.6081H44.9357V6.68188Z" fill="url(#paint2_linear_508_5423)"/>
</g>
<mask id="mask3_508_5423" style="mask-type:luminance" maskUnits="userSpaceOnUse" x="34" y="23" width="60" height="33">
<path d="M44.3589 23.0226H44.3254C43.6294 23.0324 42.8291 23.335 41.894 24.0643C40.822 24.9039 39.9715 25.8939 39.1043 26.915C35.8312 31.7535 34.7484 36.9434 34.5348 42.4389C34.2441 46.9092 34.8807 51.3911 36.4051 55.6079H37.8C39.2647 55.1198 39.2027 53.8799 39.0974 52.7122C38.7735 49.2084 38.7036 45.5278 38.9989 42.02C39.3051 38.318 40.5247 31.5114 43.7495 28.5855C45.1119 31.6812 46.7086 33.8574 50.4226 33.6543C54.2548 33.4327 89.9512 31.446 93.3847 31.4089C89.9079 31.4411 56.1281 30.664 49.3831 28.5279C48.3102 28.1081 47.2598 23.0197 44.3628 23.0177" fill="white"/>
</mask>
<g mask="url(#mask3_508_5423)">
<path d="M93.381 23.0227H34.2437V55.608H93.381V23.0227Z" fill="url(#paint3_linear_508_5423)"/>
</g>
<path fill-rule="evenodd" clip-rule="evenodd" d="M158.92 46.8136C159.299 45.481 160.438 44.8151 161.831 44.8151C163.308 44.8151 164.362 45.481 164.53 46.8136H158.92ZM166.999 48.9116C167.4 44.6872 165.227 42.5658 161.747 42.5658C158.37 42.5658 156.219 44.8112 156.219 47.9353C156.219 51.2225 158.35 53.4074 161.937 53.4074C163.517 53.4074 165.311 52.8665 166.408 51.7428L164.763 50.1407C164.172 50.7441 162.928 51.0975 161.978 51.0975C160.165 51.0975 159.045 50.1827 158.877 48.9126L166.999 48.9116ZM153.94 53.1389V47.7498C153.94 44.5281 151.98 42.7142 149.533 42.7142C148.225 42.7142 147.171 43.2345 146.116 44.2538L145.947 42.8587H143.648V53.1389H146.199V47.8953C146.199 46.3333 147.275 45.0231 148.857 45.0231C150.502 45.0231 151.366 46.2093 151.366 47.7703V53.1399L153.94 53.1389ZM138.059 39.9894C138.059 41.9654 141.095 41.9654 141.095 39.9894C141.095 38.0134 138.059 38.0114 138.059 39.9894ZM140.864 42.8391V53.1389H138.291V42.8391H140.864ZM132.955 38.5953V53.1418H135.506V38.5953H132.955ZM122.365 46.8136C122.745 45.481 123.884 44.8151 125.275 44.8151C126.752 44.8151 127.806 45.481 127.976 46.8136H122.365ZM130.442 48.9116C130.844 44.6872 128.671 42.5658 125.19 42.5658C121.815 42.5658 119.664 44.8112 119.664 47.9353C119.664 51.2225 121.794 53.4074 125.38 53.4074C126.962 53.4074 128.756 52.8665 129.852 51.7428L128.206 50.1407C127.615 50.7441 126.372 51.0975 125.421 51.0975C123.609 51.0975 122.49 50.1827 122.321 48.9126L130.442 48.9116ZM114.516 53.1389V45.2525H117.576V43.0266H114.516V42.3432C114.516 41.0955 115.192 40.5127 116.077 40.5127C116.605 40.5127 117.111 40.7001 117.659 41.0545L118.608 39.1605C117.807 38.6326 116.871 38.3436 115.909 38.3278C113.821 38.3278 111.943 39.5969 111.943 42.3432V43.0266H110.002V45.2525H111.943V53.1389H114.516ZM105.446 39.9894C105.446 41.9654 108.484 41.9654 108.484 39.9894C108.484 38.0134 105.446 38.0114 105.446 39.9894ZM108.253 42.8391V53.1389H105.679V42.8391H108.253ZM100.342 38.5953V53.1418H102.894V38.5953H100.342ZM95.6172 42.8811L93.7184 47.372L92.6434 50.2032L91.6512 47.3105L90.0703 42.8811H87.0738L91.2289 52.9729L89.2877 57.4248H92.1138L98.4641 42.8782L95.6172 42.8811ZM82.6442 38.5953V44.2753C82.0329 43.214 80.325 42.6312 79.2274 42.6312C76.1906 42.6312 73.9334 44.4627 73.9334 48.0007C73.9334 51.3718 76.2329 53.3703 79.2914 53.3703C80.5563 53.3703 81.8439 52.9534 82.6442 51.7252L82.8135 53.1409H85.2173V38.5943L82.6442 38.5953ZM79.4587 45.0065C81.0829 45.0065 82.4748 46.2122 82.4748 48.0017C82.4748 49.8566 81.0829 51.0194 79.4587 51.0194C77.8129 51.0194 76.5056 49.7922 76.5056 48.0017C76.5056 46.1468 77.8129 45.0065 79.4587 45.0065ZM63.8288 46.8136C64.2088 45.481 65.3467 44.8112 66.7406 44.8112C68.2172 44.8112 69.2714 45.4771 69.4398 46.8097L63.8288 46.8136ZM71.9066 48.9116C72.3082 44.6872 70.1347 42.5658 66.655 42.5658C63.2795 42.5658 61.1297 44.8112 61.1297 47.9353C61.1297 51.2225 63.2608 53.4074 66.8459 53.4074C68.4288 53.4074 70.2213 52.8665 71.3179 51.7428L69.673 50.1407C69.0824 50.7441 67.8382 51.0975 66.8883 51.0975C65.0741 51.0975 63.9568 50.1827 63.7875 48.9126L71.9066 48.9116ZM55.8544 53.1389H58.6392V38.5923H55.4538L50.8341 44.8405L46.2154 38.5923H43.0083V53.1389H45.7931V42.5658L50.4984 48.9018H51.0457L55.8554 42.5863L55.8544 53.1389Z" fill="#007CBE"/>
<path fill-rule="evenodd" clip-rule="evenodd" d="M170.913 41.2673H171.076V39.1488H170.873L170.064 40.3809L169.244 39.1488H169.047V41.2673H169.214V39.388L170.04 40.6259H170.095L170.914 39.388L170.913 41.2673ZM167.795 41.2673H167.959V39.3031H168.734V39.1586H167.021V39.3031H167.795V41.2673Z" fill="#007CBE"/>
<defs>
<linearGradient id="paint0_linear_508_5423" x1="6.74978" y1="10.4533" x2="47.8644" y2="51.6725" gradientUnits="userSpaceOnUse">
<stop stop-color="#96C947"/>
<stop offset="0.25" stop-color="#8EC647"/>
<stop offset="0.53" stop-color="#86C448"/>
<stop offset="0.69" stop-color="#6EBD49"/>
<stop offset="1" stop-color="#54B849"/>
</linearGradient>
<linearGradient id="paint1_linear_508_5423" x1="34.4622" y1="39.3158" x2="93.3898" y2="39.3158" gradientUnits="userSpaceOnUse">
<stop stop-color="#0E4B67"/>
<stop offset="0.04" stop-color="#0E506D"/>
<stop offset="0.33" stop-color="#0F7195"/>
<stop offset="0.6" stop-color="#1088B1"/>
<stop offset="0.83" stop-color="#1197C3"/>
<stop offset="1" stop-color="#119CC9"/>
</linearGradient>
<linearGradient id="paint2_linear_508_5423" x1="6.74978" y1="10.4533" x2="47.8644" y2="51.6725" gradientUnits="userSpaceOnUse">
<stop stop-color="#96C947"/>
<stop offset="0.25" stop-color="#8EC647"/>
<stop offset="0.53" stop-color="#86C448"/>
<stop offset="0.69" stop-color="#6EBD49"/>
<stop offset="1" stop-color="#54B849"/>
</linearGradient>
<linearGradient id="paint3_linear_508_5423" x1="34.4622" y1="39.3158" x2="93.3898" y2="39.3158" gradientUnits="userSpaceOnUse">
<stop stop-color="#0E4B67"/>
<stop offset="0.04" stop-color="#0E506D"/>
<stop offset="0.33" stop-color="#0F7195"/>
<stop offset="0.6" stop-color="#1088B1"/>
<stop offset="0.83" stop-color="#1197C3"/>
<stop offset="1" stop-color="#119CC9"/>
</linearGradient>
</defs>
</svg>
