<svg width="14" height="14" viewBox="0 0 14 14" fill="none" xmlns="http://www.w3.org/2000/svg">
<path d="M7.0001 8.05001L1.7501 13.3C1.6001 13.45 1.4251 13.525 1.2251 13.525C1.0251 13.525 0.850098 13.45 0.700098 13.3C0.550098 13.15 0.475098 12.975 0.475098 12.775C0.475098 12.575 0.550098 12.4 0.700098 12.25L5.9501 7.00001L0.700098 1.75001C0.550098 1.60001 0.475098 1.42501 0.475098 1.22501C0.475098 1.02501 0.550098 0.850006 0.700098 0.700006C0.850098 0.550006 1.0251 0.475006 1.2251 0.475006C1.4251 0.475006 1.6001 0.550006 1.7501 0.700006L7.0001 5.95001L12.2501 0.700006C12.4001 0.550006 12.5751 0.475006 12.7751 0.475006C12.9751 0.475006 13.1501 0.550006 13.3001 0.700006C13.4501 0.850006 13.5251 1.02501 13.5251 1.22501C13.5251 1.42501 13.4501 1.60001 13.3001 1.75001L8.0501 7.00001L13.3001 12.25C13.4501 12.4 13.5251 12.575 13.5251 12.775C13.5251 12.975 13.4501 13.15 13.3001 13.3C13.1501 13.45 12.9751 13.525 12.7751 13.525C12.5751 13.525 12.4001 13.45 12.2501 13.3L7.0001 8.05001Z" fill="url(#paint0_linear_667_874)"/>
<defs>
<linearGradient id="paint0_linear_667_874" x1="7" y1="-5.49997" x2="7" y2="16.5" gradientUnits="userSpaceOnUse">
<stop stop-color="#005ABE"/>
<stop offset="1" stop-color="#00C6B0"/>
</linearGradient>
</defs>
</svg>
