<svg width="56" height="76" viewBox="0 0 56 76" fill="none" xmlns="http://www.w3.org/2000/svg">
<path d="M46.752 50.2835C43.7484 50.2835 41.3173 52.7213 41.3173 55.7225C41.3173 58.1082 42.8554 60.1259 44.9922 60.8574L44.9936 67.7579C44.9646 68.178 44.5036 71.8629 37.1626 71.8629C29.8724 71.8629 29.5882 67.9259 29.581 67.4798V49.0827C55.3368 48.1702 55.3528 27.3527 55.3528 18.3432C55.3528 12.3523 53.6045 7.87655 50.1572 5.04189C46.3751 1.93057 41.5841 1.69157 38.9486 1.84511C38.3484 1.03252 37.3917 0.498019 36.3015 0.498019C34.4808 0.498019 33.0051 1.97257 33.0051 3.79185C33.0051 5.61113 34.4808 7.08568 36.3015 7.08568C37.5497 7.08568 38.6224 6.38462 39.182 5.362C41.268 5.24757 45.0907 5.42284 47.9349 7.77372C50.5182 9.91021 51.8287 13.4662 51.8287 18.3432C51.8287 32.5035 48.9192 45.6064 27.8182 45.6064C17.7475 45.6064 11.0806 42.6863 7.43768 36.678C4.23977 31.4027 3.80778 24.4485 3.80778 18.3432C3.80778 13.4662 5.11824 9.91021 7.70151 7.77372C10.0934 5.7951 13.1725 5.3591 15.3353 5.33737C15.8906 6.37158 16.9705 7.08425 18.2288 7.08425C20.0496 7.08425 21.5253 5.6097 21.5253 3.79041C21.5253 1.97113 20.0496 0.496582 18.2288 0.496582C17.1561 0.496582 16.2109 1.01658 15.6093 1.81034C12.8724 1.79586 8.78875 2.3173 5.47922 5.04043C2.03196 7.87654 0.283691 12.3509 0.283691 18.3418C0.283691 27.3527 0.282243 48.1905 26.0555 49.0958V67.4537C26.0511 67.7304 26.0772 70.2203 28.2169 72.3901C30.1754 74.376 33.1834 75.3827 37.1597 75.3827C48.1828 75.3827 48.509 67.9607 48.5119 67.8376V60.8559C50.6501 60.1244 52.1926 58.1067 52.1926 55.7225C52.1955 52.7213 49.7557 50.2835 46.752 50.2835ZM46.752 57.888C45.5546 57.888 44.5848 56.9204 44.5848 55.7225C44.5848 54.5261 45.5532 53.557 46.752 53.557C47.9509 53.557 48.9192 54.5247 48.9192 55.7225C48.9192 56.919 47.9509 57.888 46.752 57.888Z" fill="white"/>
</svg>
