<svg width="26" height="74" viewBox="0 0 26 74" fill="none" xmlns="http://www.w3.org/2000/svg">
<path d="M17.6245 7.63254V5.7611H19.0539V0.112061H7.29728V5.7611H8.73242V7.63254C4.07761 7.96568 0.394043 11.8389 0.394043 16.5739V21.2105H25.9615V16.5739C25.9629 11.8389 22.2793 7.96568 17.6245 7.63254ZM0.395459 73.7669H25.9629V41.0329H0.395459V73.7669ZM0.395459 22.5967V39.6467H25.9629V22.5967H0.395459ZM13.1785 37.0959C12.4856 37.0959 9.87619 36.9569 9.87619 33.0547C9.87619 29.1525 13.1785 25.2228 13.1785 25.2228C13.1785 25.2228 16.4807 29.1525 16.4807 33.0547C16.4807 36.9569 13.8729 37.0959 13.1785 37.0959Z" fill="white"/>
</svg>
