<svg width="76" height="68" viewBox="0 0 76 68" fill="none" xmlns="http://www.w3.org/2000/svg">
<path d="M38.4548 31.3388H72.8028C71.8069 33.2884 70.4993 35.1135 68.8699 36.7402C68.7249 36.885 68.4234 37.1863 68.4234 37.1863L67.8623 37.7468L38.4447 67.1407C37.9678 67.6173 37.1893 67.6173 36.7124 67.1407L7.29474 37.7468L6.73374 37.1863C6.73374 37.1863 6.44382 36.885 6.29741 36.7402C4.66801 35.1121 3.36041 33.287 2.3645 31.3388H11.4436C12.1279 31.3388 12.7411 30.8825 12.9382 30.2293L15.9477 20.3376L18.9673 30.2293L23.4597 45.0254C23.5119 45.1703 23.5844 45.305 23.667 45.4397C23.6772 45.46 23.6975 45.4817 23.7091 45.502C23.7917 45.6164 23.8961 45.7192 24.0106 45.8032C24.0309 45.8235 24.0628 45.8337 24.0831 45.8554C24.1874 45.9278 24.3005 45.9901 24.4353 46.0321C24.4455 46.0423 24.4672 46.0524 24.4774 46.0524C24.4875 46.0524 24.4977 46.0625 24.4977 46.0625C24.6426 46.1045 24.7992 46.1248 24.9442 46.1248C24.9442 46.1248 24.9442 46.1248 24.9543 46.1248H24.9645C25.1094 46.1248 25.2544 46.1045 25.411 46.0625L25.4211 46.0524C25.4414 46.0524 25.4631 46.0423 25.4733 46.0321C25.6081 45.9901 25.7226 45.9278 25.8255 45.8554C25.8458 45.8351 25.8676 45.825 25.898 45.8032C26.0126 45.7207 26.1054 45.6164 26.1996 45.502C26.2097 45.4817 26.2199 45.46 26.2416 45.4397C26.3242 45.305 26.3967 45.1703 26.4387 45.0254L30.9428 30.2293L33.9523 20.3376L36.9719 30.2293C37.1676 30.8825 37.7692 31.3388 38.4548 31.3388Z" fill="white"/>
<path d="M74.089 28.2276H39.6078L35.4474 14.5309C35.4169 14.4382 35.3749 14.344 35.3328 14.2513C35.3024 14.1992 35.2705 14.1688 35.24 14.1268C35.2198 14.0848 35.1879 14.0341 35.1574 14.0022C35.127 13.95 35.0748 13.9196 35.0327 13.8776C35.0023 13.8472 34.9805 13.8153 34.9501 13.7849C34.8878 13.7429 34.8254 13.7024 34.7631 13.6604C34.7428 13.6502 34.7211 13.6299 34.7008 13.6183C34.5138 13.5256 34.3166 13.4634 34.1093 13.4416C34.0571 13.4315 34.005 13.4416 33.9542 13.4416C33.9122 13.4416 33.8614 13.4315 33.8092 13.4416C33.602 13.4619 33.4048 13.5242 33.2178 13.6183C33.1975 13.6285 33.1656 13.6488 33.1453 13.6705C33.083 13.7009 33.0206 13.7429 32.9684 13.7849C32.9365 13.8153 32.9061 13.8472 32.8742 13.8776C32.8322 13.9196 32.7916 13.9602 32.7597 14.0022C32.7177 14.0442 32.6974 14.0848 32.6669 14.1268C32.6466 14.1688 32.6147 14.2093 32.5843 14.2513C32.5423 14.344 32.5017 14.4382 32.4698 14.5309L27.9657 29.327L24.9563 39.2288L21.9468 29.327L17.4428 14.5309C17.4123 14.4382 17.3703 14.344 17.3181 14.2513C17.2978 14.2093 17.2659 14.1688 17.2354 14.1268C17.2152 14.0848 17.1833 14.0442 17.1529 14.0022C17.1108 13.95 17.0702 13.9196 17.0281 13.8776C16.9977 13.8472 16.976 13.8153 16.9455 13.7849C16.8832 13.7328 16.8107 13.6922 16.7484 13.6502C16.7281 13.6401 16.7064 13.6299 16.6962 13.6198C16.5092 13.5271 16.312 13.4648 16.1047 13.4431C16.0525 13.4329 16.0004 13.4431 15.9496 13.4431C15.8989 13.4431 15.8554 13.4329 15.8046 13.4431C15.5973 13.4634 15.4002 13.5155 15.2132 13.6198C15.1828 13.6401 15.1509 13.6618 15.1204 13.6821C15.0683 13.7125 15.0161 13.7444 14.9653 13.7864C14.9233 13.8168 14.8928 13.8588 14.8609 13.8907C14.8189 13.9327 14.7885 13.9631 14.7464 14.0051C14.7145 14.0471 14.6841 14.0978 14.6522 14.1499C14.6319 14.1804 14.6 14.2122 14.5797 14.2542C14.5377 14.3469 14.4971 14.4411 14.4652 14.5338L10.2931 28.2305H1.06759C-1.33013 20.8274 0.403652 12.377 6.29791 6.48751C14.6624 -1.87018 28.2238 -1.87018 36.5781 6.48751C36.723 6.63235 37.0144 6.9235 37.0144 6.9235L37.5855 7.48406L38.1466 6.9235C38.1466 6.9235 38.4365 6.6338 38.5829 6.48751C46.9474 -1.87018 60.4987 -1.87018 68.8733 6.48751C74.753 12.3756 76.4954 20.8245 74.089 28.2276Z" fill="white"/>
</svg>
