<svg width="208" height="208" viewBox="0 0 208 208" fill="none" xmlns="http://www.w3.org/2000/svg">
<path d="M207.983 103.934C207.983 131.28 197.415 156.153 180.114 174.713C161.146 195.085 134.061 207.834 104 207.834C73.9388 207.834 46.8537 195.085 27.8865 174.713C10.585 156.153 0.0170898 131.28 0.0170898 103.934C0.0170898 46.5641 46.5724 0.0463867 104 0.0463867C161.428 0.0463867 207.983 46.5641 207.983 103.934Z" fill="white"/>
<path d="M180.113 174.713C161.146 195.085 134.061 207.834 104 207.834C73.9385 207.834 46.8534 195.085 27.8862 174.713C28.2776 172.842 28.6937 170.957 29.1474 169.024C34.7184 145.031 53.197 143.758 58.8782 140.773C77.9308 130.752 85.8778 131.572 86.6736 129.688C89.1467 123.852 88.6452 115.006 88.6452 115.006C82.229 108.851 82.3639 104.801 80.3431 98.8061C76.2536 99.1726 72.5918 88.5292 74.8576 85.2498C76.413 82.9989 78.7397 84.0259 79.1428 84.1982C79.1428 84.1982 71.8322 57.8925 88.9017 58.4806C88.9017 58.4806 85.7546 56.9148 87.0766 51.8364C88.3987 46.7827 94.9743 45.2053 94.9743 45.2053C94.9743 45.2053 98.4636 51.2006 114.578 54.3814C134.17 58.2474 131.953 77.6033 128.855 84.1982C129.26 84.0273 131.587 82.9989 133.141 85.2498C135.406 88.5292 131.758 99.174 127.655 98.8061C125.634 104.801 125.769 108.851 119.353 115.006C119.353 115.006 118.851 123.852 121.324 129.688C122.12 131.572 130.067 130.752 149.12 140.773C154.801 143.758 173.28 145.03 178.851 169.024C179.304 170.956 179.72 172.84 180.113 174.713Z" fill="url(#paint0_linear_836_573)"/>
<defs>
<linearGradient id="paint0_linear_836_573" x1="104" y1="45.2053" x2="104" y2="207.834" gradientUnits="userSpaceOnUse">
<stop stop-color="#00C6B0"/>
<stop offset="1" stop-color="#009E8C"/>
</linearGradient>
</defs>
</svg>
