<svg width="84" height="84" viewBox="0 0 84 84" fill="none" xmlns="http://www.w3.org/2000/svg">
<path d="M38.8752 53.4583V62.8333C38.8752 63.7187 39.1764 64.4609 39.7788 65.0598C40.3813 65.6588 41.1278 65.9583 42.0184 65.9583C42.909 65.9583 43.6495 65.6588 44.2397 65.0598C44.83 64.4609 45.1252 63.7187 45.1252 62.8333V53.4583H54.5002C55.3856 53.4583 56.1278 53.157 56.7267 52.5546C57.3257 51.9521 57.6252 51.2056 57.6252 50.315C57.6252 49.4244 57.3257 48.6839 56.7267 48.0937C56.1278 47.5034 55.3856 47.2083 54.5002 47.2083H45.1252V37.8333C45.1252 36.9478 44.824 36.2057 44.2215 35.6067C43.619 35.0077 42.8725 34.7083 41.9819 34.7083C41.0913 34.7083 40.3509 35.0077 39.7606 35.6067C39.1703 36.2057 38.8752 36.9478 38.8752 37.8333V47.2083H29.5002C28.6147 47.2083 27.8726 47.5095 27.2736 48.1119C26.6746 48.7144 26.3752 49.4609 26.3752 50.3515C26.3752 51.2421 26.6746 51.9826 27.2736 52.5728C27.8726 53.1631 28.6147 53.4583 29.5002 53.4583H38.8752ZM6.5835 83.6666C4.91683 83.6666 3.4585 83.0416 2.2085 81.7916C0.958496 80.5416 0.333496 79.0833 0.333496 77.4166V23.2499C0.333496 21.5833 0.958496 20.1249 2.2085 18.8749C3.4585 17.6249 4.91683 16.9999 6.5835 16.9999H25.3335V6.58325C25.3335 4.91659 25.9585 3.45825 27.2085 2.20825C28.4585 0.958252 29.9168 0.333252 31.5835 0.333252H52.4168C54.0835 0.333252 55.5418 0.958252 56.7918 2.20825C58.0418 3.45825 58.6668 4.91659 58.6668 6.58325V16.9999H77.4168C79.0835 16.9999 80.5418 17.6249 81.7918 18.8749C83.0418 20.1249 83.6668 21.5833 83.6668 23.2499V77.4166C83.6668 79.0833 83.0418 80.5416 81.7918 81.7916C80.5418 83.0416 79.0835 83.6666 77.4168 83.6666H6.5835ZM6.5835 77.4166H77.4168V23.2499H6.5835V77.4166ZM31.5835 16.9999H52.4168V6.58325H31.5835V16.9999Z" fill="url(#paint0_linear_508_4024)"/>
<defs>
<linearGradient id="paint0_linear_508_4024" x1="42.0005" y1="-13" x2="42.0005" y2="98.5" gradientUnits="userSpaceOnUse">
<stop stop-color="#005ABE"/>
<stop offset="1" stop-color="#00C6B0"/>
</linearGradient>
</defs>
</svg>
