<svg width="62" height="62" viewBox="0 0 62 62" fill="none" xmlns="http://www.w3.org/2000/svg">
<path d="M30.8448 3.875C38.0388 3.875 44.9382 6.7328 50.0251 11.8197C55.112 16.9067 57.9698 23.806 57.9698 31C57.9698 38.194 55.112 45.0933 50.0251 50.1803C44.9382 55.2672 38.0388 58.125 30.8448 58.125C23.6509 58.125 16.7515 55.2672 11.6646 50.1803C6.57765 45.0933 3.71985 38.194 3.71985 31C3.71985 23.806 6.57765 16.9067 11.6646 11.8197C16.7515 6.7328 23.6509 3.875 30.8448 3.875ZM27.4658 36.3514L21.4402 30.3219C21.2242 30.1059 20.9678 29.9345 20.6855 29.8176C20.4033 29.7007 20.1008 29.6405 19.7953 29.6405C19.4898 29.6405 19.1873 29.7007 18.9051 29.8176C18.6228 29.9345 18.3664 30.1059 18.1503 30.3219C17.7141 30.7581 17.469 31.3498 17.469 31.9668C17.469 32.5838 17.7141 33.1755 18.1503 33.6117L25.8228 41.2843C26.0383 41.5014 26.2945 41.6737 26.5768 41.7912C26.8592 41.9088 27.162 41.9694 27.4678 41.9694C27.7736 41.9694 28.0764 41.9088 28.3587 41.7912C28.6411 41.6737 28.8973 41.5014 29.1127 41.2843L45.0002 25.3929C45.2191 25.1778 45.3933 24.9214 45.5126 24.6387C45.632 24.3559 45.6941 24.0523 45.6956 23.7454C45.697 23.4385 45.6376 23.1343 45.5209 22.8505C45.4042 22.5666 45.2325 22.3087 45.0156 22.0915C44.7987 21.8744 44.5409 21.7023 44.2572 21.5853C43.9735 21.4683 43.6694 21.4085 43.3625 21.4096C43.0556 21.4107 42.7519 21.4725 42.469 21.5915C42.1861 21.7105 41.9296 21.8844 41.7142 22.103L27.4658 36.3514Z" fill="url(#paint0_linear_764_7)"/>
<defs>
<linearGradient id="paint0_linear_764_7" x1="31.0001" y1="-5" x2="31.0001" y2="65" gradientUnits="userSpaceOnUse">
<stop stop-color="#00C6B0"/>
<stop offset="1" stop-color="#009E8C"/>
</linearGradient>
</defs>
</svg>
