<svg width="20" height="17" viewBox="0 0 20 17" fill="none" xmlns="http://www.w3.org/2000/svg">
<path fill-rule="evenodd" clip-rule="evenodd" d="M9.93421 4.91152L9.97617 5.60357L9.2767 5.51883C6.73059 5.19399 4.50625 4.09237 2.61765 2.24221L1.69434 1.32419L1.45652 2.00211C0.952891 3.51331 1.27465 5.10925 2.32387 6.18263C2.88345 6.77581 2.75755 6.86055 1.79227 6.50746C1.45652 6.39448 1.16273 6.30974 1.13476 6.35211C1.03683 6.45097 1.37258 7.7362 1.63838 8.24464C2.00211 8.95081 2.74356 9.64285 3.55495 10.0524L4.24044 10.3773L3.42905 10.3914C2.64563 10.3914 2.61765 10.4055 2.70159 10.7021C2.98138 11.6201 4.08656 12.5946 5.31764 13.0183L6.185 13.3149L5.42956 13.7669C4.31039 14.4166 2.99537 14.7838 1.68035 14.812C1.05082 14.8261 0.533203 14.8826 0.533203 14.925C0.533203 15.0662 2.23993 15.8571 3.23319 16.1678C6.21298 17.0859 9.75234 16.6904 12.4104 15.1227C14.299 14.007 16.1876 11.7896 17.0689 9.64285C17.5445 8.49886 18.0202 6.4086 18.0202 5.40584C18.0202 4.75617 18.0622 4.67143 18.8456 3.89464C19.3072 3.44269 19.7409 2.94838 19.8248 2.80714C19.9647 2.5388 19.9508 2.5388 19.2373 2.7789C18.0482 3.2026 17.8803 3.1461 18.4679 2.51055C18.9015 2.0586 19.4191 1.23945 19.4191 0.999351C19.4191 0.95698 19.2093 1.0276 18.9715 1.15471C18.7197 1.29594 18.1601 1.50779 17.7404 1.6349L16.985 1.875L16.2995 1.40893C15.9217 1.15471 15.3901 0.87224 15.1104 0.7875C14.3969 0.589773 13.3057 0.61802 12.6622 0.843993C10.9135 1.47955 9.8083 3.11786 9.93421 4.91152Z" fill="white"/>
</svg>
